<svg xmlns="http://www.w3.org/2000/svg" viewBox="0 0 512 512">
  <defs>
    <linearGradient id="goldGrad" x1="0%" y1="0%" x2="100%" y2="100%">
      <stop offset="0%" style="stop-color:#fcd34d;stop-opacity:1" />
      <stop offset="100%" style="stop-color:#b45309;stop-opacity:1" />
    </linearGradient>
  </defs>
  <circle cx="256" cy="256" r="246" fill="#141414" stroke="url(#goldGrad)" stroke-width="20"/>
  
  <!-- Book Pages -->
  <path d="M128 160c0-17.7 14.3-32 32-32h96v256h-96c-17.7 0-32-14.3-32-32V160z" fill="url(#goldGrad)" opacity="0.9"/>
  <path d="M256 128h96c17.7 0 32 14.3 32 32v192c0 17.7-14.3 32-32 32h-96V128z" fill="url(#goldGrad)"/>
  
  <!-- Digital Circuit Lines -->
  <path d="M256 128v256" stroke="#141414" stroke-width="8" stroke-linecap="round"/>
  <circle cx="256" cy="110" r="12" fill="url(#goldGrad)"/>
  <path d="M160 200h-40M352 200h40M160 300h-40M352 300h40" stroke="#f59e0b" stroke-width="8" stroke-linecap="round"/>
</svg>